<svg xmlns="http://www.w3.org/2000/svg" width="980" height="560" viewBox="0 0 980 560" font-family="system-ui,Arial,sans-serif">
<rect width="980" height="560" fill="#ffffff"/>
<text x="490" y="30" text-anchor="middle" font-size="18" font-weight="600" fill="#222">EverQuest P99 — Kills to Reach the Next Level (same-level mob)</text>
<text x="490" y="50" text-anchor="middle" font-size="12" fill="#777">solo, no race/class modifier, white-con same-level mob, ZEM 75 (normal)</text>
<line x1="110" y1="500.0" x2="950" y2="500.0" stroke="#e3e3e3"/><text x="100" y="504.0" text-anchor="end" font-size="12" fill="#555">0</text><line x1="110" y1="436.4" x2="950" y2="436.4" stroke="#e3e3e3"/><text x="100" y="440.4" text-anchor="end" font-size="12" fill="#555">50</text><line x1="110" y1="372.9" x2="950" y2="372.9" stroke="#e3e3e3"/><text x="100" y="376.9" text-anchor="end" font-size="12" fill="#555">100</text><line x1="110" y1="309.3" x2="950" y2="309.3" stroke="#e3e3e3"/><text x="100" y="313.3" text-anchor="end" font-size="12" fill="#555">150</text><line x1="110" y1="245.8" x2="950" y2="245.8" stroke="#e3e3e3"/><text x="100" y="249.8" text-anchor="end" font-size="12" fill="#555">200</text><line x1="110" y1="182.2" x2="950" y2="182.2" stroke="#e3e3e3"/><text x="100" y="186.2" text-anchor="end" font-size="12" fill="#555">250</text><line x1="110" y1="118.7" x2="950" y2="118.7" stroke="#e3e3e3"/><text x="100" y="122.7" text-anchor="end" font-size="12" fill="#555">300</text><text x="117.0" y="520" text-anchor="middle" font-size="12" fill="#555">1</text><text x="173.0" y="520" text-anchor="middle" font-size="12" fill="#555">5</text><text x="243.0" y="520" text-anchor="middle" font-size="12" fill="#555">10</text><text x="313.0" y="520" text-anchor="middle" font-size="12" fill="#555">15</text><text x="383.0" y="520" text-anchor="middle" font-size="12" fill="#555">20</text><text x="453.0" y="520" text-anchor="middle" font-size="12" fill="#555">25</text><text x="523.0" y="520" text-anchor="middle" font-size="12" fill="#555">30</text><text x="593.0" y="520" text-anchor="middle" font-size="12" fill="#555">35</text><text x="663.0" y="520" text-anchor="middle" font-size="12" fill="#555">40</text><text x="733.0" y="520" text-anchor="middle" font-size="12" fill="#555">45</text><text x="803.0" y="520" text-anchor="middle" font-size="12" fill="#555">50</text><text x="873.0" y="520" text-anchor="middle" font-size="12" fill="#555">55</text><text x="943.0" y="520" text-anchor="middle" font-size="12" fill="#555">60</text>
<rect x="111.5" y="482.2" width="10.9" height="17.8" fill="#1f6feb"/><rect x="125.5" y="469.5" width="10.9" height="30.5" fill="#1f6feb"/><rect x="139.5" y="463.1" width="10.9" height="36.9" fill="#1f6feb"/><rect x="153.5" y="460.6" width="10.9" height="39.4" fill="#1f6feb"/><rect x="167.5" y="458.1" width="10.9" height="41.9" fill="#1f6feb"/><rect x="181.5" y="456.8" width="10.9" height="43.2" fill="#1f6feb"/><rect x="195.5" y="455.5" width="10.9" height="44.5" fill="#1f6feb"/><rect x="209.5" y="454.2" width="10.9" height="45.8" fill="#1f6feb"/><rect x="223.5" y="454.2" width="10.9" height="45.8" fill="#1f6feb"/><rect x="237.5" y="453.0" width="10.9" height="47.0" fill="#1f6feb"/><rect x="251.5" y="453.0" width="10.9" height="47.0" fill="#1f6feb"/><rect x="265.5" y="453.0" width="10.9" height="47.0" fill="#1f6feb"/><rect x="279.5" y="451.7" width="10.9" height="48.3" fill="#1f6feb"/><rect x="293.5" y="451.7" width="10.9" height="48.3" fill="#1f6feb"/><rect x="307.5" y="451.7" width="10.9" height="48.3" fill="#1f6feb"/><rect x="321.5" y="451.7" width="10.9" height="48.3" fill="#1f6feb"/><rect x="335.5" y="451.7" width="10.9" height="48.3" fill="#1f6feb"/><rect x="349.5" y="451.7" width="10.9" height="48.3" fill="#1f6feb"/><rect x="363.5" y="451.7" width="10.9" height="48.3" fill="#1f6feb"/><rect x="377.5" y="450.4" width="10.9" height="49.6" fill="#1f6feb"/><rect x="391.5" y="450.4" width="10.9" height="49.6" fill="#1f6feb"/><rect x="405.5" y="450.4" width="10.9" height="49.6" fill="#1f6feb"/><rect x="419.5" y="450.4" width="10.9" height="49.6" fill="#1f6feb"/><rect x="433.5" y="450.4" width="10.9" height="49.6" fill="#1f6feb"/><rect x="447.5" y="450.4" width="10.9" height="49.6" fill="#1f6feb"/><rect x="461.5" y="450.4" width="10.9" height="49.6" fill="#1f6feb"/><rect x="475.5" y="450.4" width="10.9" height="49.6" fill="#1f6feb"/><rect x="489.5" y="450.4" width="10.9" height="49.6" fill="#1f6feb"/><rect x="503.5" y="450.4" width="10.9" height="49.6" fill="#1f6feb"/><rect x="517.5" y="399.6" width="10.9" height="100.4" fill="#f4b740"/><rect x="531.5" y="445.3" width="10.9" height="54.7" fill="#1f6feb"/><rect x="545.5" y="445.3" width="10.9" height="54.7" fill="#1f6feb"/><rect x="559.5" y="445.3" width="10.9" height="54.7" fill="#1f6feb"/><rect x="573.5" y="445.3" width="10.9" height="54.7" fill="#1f6feb"/><rect x="587.5" y="385.6" width="10.9" height="114.4" fill="#f4b740"/><rect x="601.5" y="440.3" width="10.9" height="59.7" fill="#1f6feb"/><rect x="615.5" y="440.3" width="10.9" height="59.7" fill="#1f6feb"/><rect x="629.5" y="440.3" width="10.9" height="59.7" fill="#1f6feb"/><rect x="643.5" y="440.3" width="10.9" height="59.7" fill="#1f6feb"/><rect x="657.5" y="371.6" width="10.9" height="128.4" fill="#f4b740"/><rect x="671.5" y="435.2" width="10.9" height="64.8" fill="#1f6feb"/><rect x="685.5" y="435.2" width="10.9" height="64.8" fill="#1f6feb"/><rect x="699.5" y="435.2" width="10.9" height="64.8" fill="#1f6feb"/><rect x="713.5" y="435.2" width="10.9" height="64.8" fill="#1f6feb"/><rect x="727.5" y="358.9" width="10.9" height="141.1" fill="#f4b740"/><rect x="741.5" y="430.1" width="10.9" height="69.9" fill="#1f6feb"/><rect x="755.5" y="430.1" width="10.9" height="69.9" fill="#1f6feb"/><rect x="769.5" y="430.1" width="10.9" height="69.9" fill="#1f6feb"/><rect x="783.5" y="430.1" width="10.9" height="69.9" fill="#1f6feb"/><rect x="797.5" y="430.1" width="10.9" height="69.9" fill="#1f6feb"/><rect x="811.5" y="343.7" width="10.9" height="156.3" fill="#f4b740"/><rect x="825.5" y="336.0" width="10.9" height="164.0" fill="#f4b740"/><rect x="839.5" y="329.7" width="10.9" height="170.3" fill="#f4b740"/><rect x="853.5" y="231.8" width="10.9" height="268.2" fill="#e8833a"/><rect x="867.5" y="217.8" width="10.9" height="282.2" fill="#e8833a"/><rect x="881.5" y="205.1" width="10.9" height="294.9" fill="#e8833a"/><rect x="895.5" y="191.1" width="10.9" height="308.9" fill="#e8833a"/><rect x="909.5" y="178.4" width="10.9" height="321.6" fill="#e8833a"/><rect x="923.5" y="64.0" width="10.9" height="436.0" fill="#b3261e"/><rect x="937.5" y="247.0" width="10.9" height="253.0" fill="#f4b740"/>
<line x1="110" y1="64" x2="110" y2="500" stroke="#888"/>
<line x1="110" y1="500" x2="950" y2="500" stroke="#888"/>
<text x="530" y="516" text-anchor="middle" font-size="13" fill="#333">Level</text>
<text x="22" y="282" text-anchor="middle" font-size="13" fill="#333" transform="rotate(-90 22 282)">Kills to next level</text>
<rect x="110" y="530" width="11" height="11" fill="#1f6feb"/><text x="126" y="540" font-size="11" fill="#555">no change</text>
<rect x="270" y="530" width="11" height="11" fill="#f4b740"/><text x="286" y="540" font-size="11" fill="#555">hell level (+0.1)</text>
<rect x="430" y="530" width="11" height="11" fill="#e8833a"/><text x="446" y="540" font-size="11" fill="#555">double hell (+0.2)</text>
<rect x="590" y="530" width="11" height="11" fill="#b3261e"/><text x="606" y="540" font-size="11" fill="#555">triple hell (+0.3)</text>
</svg>
