<svg xmlns="http://www.w3.org/2000/svg" width="980" height="560" viewBox="0 0 980 560" font-family="system-ui,Arial,sans-serif">
<rect width="980" height="560" fill="#ffffff"/>
<text x="490" y="30" text-anchor="middle" font-size="18" font-weight="600" fill="#222">EverQuest P99 — Cumulative XP to Reach Each Level</text>
<text x="490" y="48" text-anchor="middle" font-size="12" fill="#777">base curve, no race/class modifier:  xp = (level-1)^3 x 1000</text>
<line x1="90" y1="500.0" x2="950" y2="500.0" stroke="#e3e3e3"/><text x="80" y="504.0" text-anchor="end" font-size="12" fill="#555">0M</text><line x1="90" y1="446.4" x2="950" y2="446.4" stroke="#e3e3e3"/><text x="80" y="450.4" text-anchor="end" font-size="12" fill="#555">25M</text><line x1="90" y1="392.9" x2="950" y2="392.9" stroke="#e3e3e3"/><text x="80" y="396.9" text-anchor="end" font-size="12" fill="#555">50M</text><line x1="90" y1="339.3" x2="950" y2="339.3" stroke="#e3e3e3"/><text x="80" y="343.3" text-anchor="end" font-size="12" fill="#555">75M</text><line x1="90" y1="285.8" x2="950" y2="285.8" stroke="#e3e3e3"/><text x="80" y="289.8" text-anchor="end" font-size="12" fill="#555">100M</text><line x1="90" y1="232.2" x2="950" y2="232.2" stroke="#e3e3e3"/><text x="80" y="236.2" text-anchor="end" font-size="12" fill="#555">125M</text><line x1="90" y1="178.6" x2="950" y2="178.6" stroke="#e3e3e3"/><text x="80" y="182.6" text-anchor="end" font-size="12" fill="#555">150M</text><line x1="90" y1="125.1" x2="950" y2="125.1" stroke="#e3e3e3"/><text x="80" y="129.1" text-anchor="end" font-size="12" fill="#555">175M</text><line x1="90" y1="71.5" x2="950" y2="71.5" stroke="#e3e3e3"/><text x="80" y="75.5" text-anchor="end" font-size="12" fill="#555">200M</text><text x="97.2" y="520" text-anchor="middle" font-size="12" fill="#555">1</text><text x="154.5" y="520" text-anchor="middle" font-size="12" fill="#555">5</text><text x="226.2" y="520" text-anchor="middle" font-size="12" fill="#555">10</text><text x="297.8" y="520" text-anchor="middle" font-size="12" fill="#555">15</text><text x="369.5" y="520" text-anchor="middle" font-size="12" fill="#555">20</text><text x="441.2" y="520" text-anchor="middle" font-size="12" fill="#555">25</text><text x="512.8" y="520" text-anchor="middle" font-size="12" fill="#555">30</text><text x="584.5" y="520" text-anchor="middle" font-size="12" fill="#555">35</text><text x="656.2" y="520" text-anchor="middle" font-size="12" fill="#555">40</text><text x="727.8" y="520" text-anchor="middle" font-size="12" fill="#555">45</text><text x="799.5" y="520" text-anchor="middle" font-size="12" fill="#555">50</text><text x="871.2" y="520" text-anchor="middle" font-size="12" fill="#555">55</text><text x="942.8" y="520" text-anchor="middle" font-size="12" fill="#555">60</text>
<rect x="91.6" y="500.0" width="11.2" height="0.0" fill="#1f6feb"/><rect x="105.9" y="500.0" width="11.2" height="0.0" fill="#1f6feb"/><rect x="120.2" y="500.0" width="11.2" height="0.0" fill="#1f6feb"/><rect x="134.6" y="499.9" width="11.2" height="0.1" fill="#1f6feb"/><rect x="148.9" y="499.9" width="11.2" height="0.1" fill="#1f6feb"/><rect x="163.2" y="499.7" width="11.2" height="0.3" fill="#1f6feb"/><rect x="177.6" y="499.5" width="11.2" height="0.5" fill="#1f6feb"/><rect x="191.9" y="499.3" width="11.2" height="0.7" fill="#1f6feb"/><rect x="206.2" y="498.9" width="11.2" height="1.1" fill="#1f6feb"/><rect x="220.6" y="498.4" width="11.2" height="1.6" fill="#1f6feb"/><rect x="234.9" y="497.9" width="11.2" height="2.1" fill="#1f6feb"/><rect x="249.2" y="497.1" width="11.2" height="2.9" fill="#1f6feb"/><rect x="263.6" y="496.3" width="11.2" height="3.7" fill="#1f6feb"/><rect x="277.9" y="495.3" width="11.2" height="4.7" fill="#1f6feb"/><rect x="292.2" y="494.1" width="11.2" height="5.9" fill="#1f6feb"/><rect x="306.6" y="492.8" width="11.2" height="7.2" fill="#1f6feb"/><rect x="320.9" y="491.2" width="11.2" height="8.8" fill="#1f6feb"/><rect x="335.2" y="489.5" width="11.2" height="10.5" fill="#1f6feb"/><rect x="349.6" y="487.5" width="11.2" height="12.5" fill="#1f6feb"/><rect x="363.9" y="485.3" width="11.2" height="14.7" fill="#1f6feb"/><rect x="378.2" y="482.9" width="11.2" height="17.1" fill="#1f6feb"/><rect x="392.6" y="480.2" width="11.2" height="19.8" fill="#1f6feb"/><rect x="406.9" y="477.2" width="11.2" height="22.8" fill="#1f6feb"/><rect x="421.2" y="473.9" width="11.2" height="26.1" fill="#1f6feb"/><rect x="435.6" y="470.4" width="11.2" height="29.6" fill="#1f6feb"/><rect x="449.9" y="466.5" width="11.2" height="33.5" fill="#1f6feb"/><rect x="464.2" y="462.3" width="11.2" height="37.7" fill="#1f6feb"/><rect x="478.6" y="457.8" width="11.2" height="42.2" fill="#1f6feb"/><rect x="492.9" y="453.0" width="11.2" height="47.0" fill="#1f6feb"/><rect x="507.2" y="447.7" width="11.2" height="52.3" fill="#1f6feb"/><rect x="521.6" y="442.2" width="11.2" height="57.8" fill="#1f6feb"/><rect x="535.9" y="436.2" width="11.2" height="63.8" fill="#1f6feb"/><rect x="550.2" y="429.8" width="11.2" height="70.2" fill="#1f6feb"/><rect x="564.6" y="423.0" width="11.2" height="77.0" fill="#1f6feb"/><rect x="578.9" y="415.8" width="11.2" height="84.2" fill="#1f6feb"/><rect x="593.2" y="408.1" width="11.2" height="91.9" fill="#1f6feb"/><rect x="607.6" y="400.0" width="11.2" height="100.0" fill="#1f6feb"/><rect x="621.9" y="391.5" width="11.2" height="108.5" fill="#1f6feb"/><rect x="636.2" y="382.4" width="11.2" height="117.6" fill="#1f6feb"/><rect x="650.6" y="372.9" width="11.2" height="127.1" fill="#1f6feb"/><rect x="664.9" y="362.9" width="11.2" height="137.1" fill="#1f6feb"/><rect x="679.2" y="352.3" width="11.2" height="147.7" fill="#1f6feb"/><rect x="693.6" y="341.3" width="11.2" height="158.7" fill="#1f6feb"/><rect x="707.9" y="329.7" width="11.2" height="170.3" fill="#1f6feb"/><rect x="722.2" y="317.5" width="11.2" height="182.5" fill="#1f6feb"/><rect x="736.6" y="304.8" width="11.2" height="195.2" fill="#1f6feb"/><rect x="750.9" y="291.5" width="11.2" height="208.5" fill="#1f6feb"/><rect x="765.2" y="277.6" width="11.2" height="222.4" fill="#1f6feb"/><rect x="779.6" y="263.1" width="11.2" height="236.9" fill="#1f6feb"/><rect x="793.9" y="248.0" width="11.2" height="252.0" fill="#1f6feb"/><rect x="808.2" y="232.2" width="11.2" height="267.8" fill="#1f6feb"/><rect x="822.6" y="215.8" width="11.2" height="284.2" fill="#1f6feb"/><rect x="836.9" y="198.8" width="11.2" height="301.2" fill="#1f6feb"/><rect x="851.2" y="181.0" width="11.2" height="319.0" fill="#1f6feb"/><rect x="865.6" y="162.7" width="11.2" height="337.3" fill="#1f6feb"/><rect x="879.9" y="143.6" width="11.2" height="356.4" fill="#1f6feb"/><rect x="894.2" y="123.8" width="11.2" height="376.2" fill="#1f6feb"/><rect x="908.6" y="103.2" width="11.2" height="396.8" fill="#1f6feb"/><rect x="922.9" y="82.0" width="11.2" height="418.0" fill="#1f6feb"/><rect x="937.2" y="60.0" width="11.2" height="440.0" fill="#1f6feb"/>
<line x1="90" y1="60" x2="90" y2="500" stroke="#888"/>
<line x1="90" y1="500" x2="950" y2="500" stroke="#888"/>
<text x="520" y="545" text-anchor="middle" font-size="13" fill="#333">Level</text>
<text x="20" y="280" text-anchor="middle" font-size="13" fill="#333" transform="rotate(-90 20 280)">Cumulative XP required</text>
</svg>